<?xml version="1.0" encoding="UTF-8" standalone="no"?>
<!-- Created with Inkscape (http://www.inkscape.org/) -->

<svg
   xmlns:dc="http://purl.org/dc/elements/1.1/"
   xmlns:cc="http://creativecommons.org/ns#"
   xmlns:rdf="http://www.w3.org/1999/02/22-rdf-syntax-ns#"
   xmlns:svg="http://www.w3.org/2000/svg"
   xmlns="http://www.w3.org/2000/svg"
   xmlns:sodipodi="http://sodipodi.sourceforge.net/DTD/sodipodi-0.dtd"
   xmlns:inkscape="http://www.inkscape.org/namespaces/inkscape"
   id="svg3004"
   version="1.1"
   inkscape:version="0.48.2 r9819"
   width="744.1"
   height="1052.3625"
   xml:space="preserve"
   sodipodi:docname="eficent_JORDI.ai"><metadata
     id="metadata3010"><rdf:RDF><cc:Work
         rdf:about=""><dc:format>image/svg+xml</dc:format><dc:type
           rdf:resource="http://purl.org/dc/dcmitype/StillImage" /><dc:title></dc:title></cc:Work></rdf:RDF></metadata><defs
     id="defs3008"><clipPath
       clipPathUnits="userSpaceOnUse"
       id="clipPath3018"><path
         d="m 0,841.89 595.28,0 L 595.28,0 0,0 0,841.89 z"
         id="path3020" /></clipPath><clipPath
       clipPathUnits="userSpaceOnUse"
       id="clipPath3026"><path
         d="m 344.798,694.042 52.54,0 0,-94.911 -52.54,0 0,94.911 z"
         id="path3028" /></clipPath><clipPath
       clipPathUnits="userSpaceOnUse"
       id="clipPath3042"><path
         d="m 376.248,774.431 125.993,0 0,-91.701 -125.993,0 0,91.701 z"
         id="path3044" /></clipPath><clipPath
       clipPathUnits="userSpaceOnUse"
       id="clipPath3058"><path
         d="m 375.407,695.888 46.252,0 0,-46.303 -46.252,0 0,46.303 z"
         id="path3060" /></clipPath><clipPath
       clipPathUnits="userSpaceOnUse"
       id="clipPath3074"><path
         d="m 375.407,695.888 46.252,0 0,-46.303 -46.252,0 0,46.303 z"
         id="path3076" /></clipPath><clipPath
       clipPathUnits="userSpaceOnUse"
       id="clipPath3090"><path
         d="m 397.338,695.287 132.136,0 0,-125.818 -132.136,0 0,125.818 z"
         id="path3092" /></clipPath><clipPath
       clipPathUnits="userSpaceOnUse"
       id="clipPath3106"><path
         d="m 389.733,649.585 46.08,0 0,-48.338 -46.08,0 0,48.338 z"
         id="path3108" /></clipPath><clipPath
       clipPathUnits="userSpaceOnUse"
       id="clipPath3122"><path
         d="m 389.733,649.585 46.08,0 0,-48.338 -46.08,0 0,48.338 z"
         id="path3124" /></clipPath><clipPath
       clipPathUnits="userSpaceOnUse"
       id="clipPath3138"><path
         d="m 421.659,697.013 79.356,0 0,-56.726 -79.356,0 0,56.726 z"
         id="path3140" /></clipPath><clipPath
       clipPathUnits="userSpaceOnUse"
       id="clipPath3154"><path
         d="m 421.659,697.013 79.356,0 0,-56.726 -79.356,0 0,56.726 z"
         id="path3156" /></clipPath><clipPath
       clipPathUnits="userSpaceOnUse"
       id="clipPath3170"><path
         d="m 393.01,682.73 43.444,0 0,-42.582 -43.444,0 0,42.582 z"
         id="path3172" /></clipPath><clipPath
       clipPathUnits="userSpaceOnUse"
       id="clipPath3186"><path
         d="m 393.01,682.73 43.444,0 0,-42.582 -43.444,0 0,42.582 z"
         id="path3188" /></clipPath><clipPath
       clipPathUnits="userSpaceOnUse"
       id="clipPath3202"><path
         d="m 393.01,682.73 43.444,0 0,-42.582 -43.444,0 0,42.582 z"
         id="path3204" /></clipPath></defs><sodipodi:namedview
     pagecolor="#ffffff"
     bordercolor="#666666"
     borderopacity="1"
     objecttolerance="10"
     gridtolerance="10"
     guidetolerance="10"
     inkscape:pageopacity="0"
     inkscape:pageshadow="2"
     inkscape:window-width="1024"
     inkscape:window-height="545"
     id="namedview3006"
     showgrid="false"
     inkscape:zoom="0.89702926"
     inkscape:cx="372.04999"
     inkscape:cy="889.84654"
     inkscape:window-x="0"
     inkscape:window-y="26"
     inkscape:window-maximized="1"
     inkscape:current-layer="g3012" /><g
     id="g3012"
     inkscape:groupmode="layer"
     inkscape:label="eficent_JORDI"
     transform="matrix(1.25,0,0,-1.25,0,1052.3625)"><g
       id="g3014"><g
         id="g3016"
         clip-path="url(#clipPath3018)"><g
           id="g3022"><g
             id="g3024" /><g
             id="g3030"><g
               clip-path="url(#clipPath3026)"
               opacity="0.550003"
               id="g3032"><g
                 transform="translate(393.0098,649.5854)"
                 id="g3034"><path
                   d="m 0,0 c -10.796,6.527 -17.89,16.368 -17.594,29.304 0.126,5.531 0.404,10.55 0.832,15.153 -1.382,-0.404 -2.756,-0.866 -4.119,-1.407 -23.982,-9.519 -30.61,-35.667 -25.926,-61.323 5.744,-31.463 29.328,-35.709 51.135,-30.066 -1.294,2.317 -2.444,4.722 -3.43,7.204 C -4.54,-27.432 -4.479,-12.916 0,0"
                   style="fill:#70a733;fill-opacity:1;fill-rule:nonzero;stroke:none"
                   id="path3036" /></g></g></g></g><g
           id="g3038"><g
             id="g3040" /><g
             id="g3046"><g
               clip-path="url(#clipPath3042)"
               opacity="0.550003"
               id="g3048"><g
                 transform="translate(421.6592,682.73)"
                 id="g3050"><path
                   d="m 0,0 c 1.734,0.895 3.527,1.716 5.379,2.451 20.204,8.02 51.85,15.249 73.976,10.106 1.932,10.656 1.583,21.951 -1.048,33.034 C 65.352,100.169 14.231,99.232 -7.003,78.915 -30.557,56.376 -42.236,45.388 -45.411,11.313 -29.114,16.075 -11.878,11.377 0,0"
                   style="fill:#fbea23;fill-opacity:1;fill-rule:nonzero;stroke:none"
                   id="path3052" /></g></g></g></g><g
           id="g3054"><g
             id="g3056" /><g
             id="g3062"><g
               clip-path="url(#clipPath3058)"
               opacity="0.550003"
               id="g3064"><g
                 transform="translate(393.0098,649.5854)"
                 id="g3066"><path
                   d="M 0,0 C 4.832,13.932 14.811,25.997 28.649,33.145 16.771,44.521 -0.465,49.219 -16.762,44.457 -17.19,39.854 -17.468,34.835 -17.594,29.304 -17.89,16.368 -10.796,6.527 0,0"
                   style="fill:#70a733;fill-opacity:1;fill-rule:nonzero;stroke:none"
                   id="path3068" /></g></g></g></g><g
           id="g3070"><g
             id="g3072" /><g
             id="g3078"><g
               clip-path="url(#clipPath3074)"
               opacity="0.550003"
               id="g3080"><g
                 transform="translate(393.0098,649.5854)"
                 id="g3082"><path
                   d="M 0,0 C 4.832,13.932 14.811,25.997 28.649,33.145 16.771,44.521 -0.465,49.219 -16.762,44.457 -17.19,39.854 -17.468,34.835 -17.594,29.304 -17.89,16.368 -10.796,6.527 0,0"
                   style="fill:#fbea23;fill-opacity:1;fill-rule:nonzero;stroke:none"
                   id="path3084" /></g></g></g></g><g
           id="g3086"><g
             id="g3088" /><g
             id="g3094"><g
               clip-path="url(#clipPath3090)"
               opacity="0.550003"
               id="g3096"><g
                 transform="translate(524.4756,676.7515)"
                 id="g3098"><path
                   d="m 0,0 c -3.662,10.268 -12.366,15.956 -23.461,18.535 -3.916,-21.609 -17.255,-40.579 -40.289,-49.722 -7.698,-3.054 -16.264,-4.795 -24.913,-5.278 -2.604,-15.693 -12.994,-29.601 -28.688,-35.83 -3.174,-1.26 -6.461,-2.349 -9.787,-3.21 14.497,-25.979 47.198,-40.643 73.302,-25.925 C 6.396,-67.472 11.664,-32.705 0,0"
                   style="fill:#0fa298;fill-opacity:1;fill-rule:nonzero;stroke:none"
                   id="path3100" /></g></g></g></g><g
           id="g3102"><g
             id="g3104" /><g
             id="g3110"><g
               clip-path="url(#clipPath3106)"
               opacity="0.550003"
               id="g3112"><g
                 transform="translate(435.8125,640.2866)"
                 id="g3114"><path
                   d="m 0,0 c -15.497,-0.863 -31.265,2.323 -42.803,9.299 -4.479,-12.916 -4.54,-27.432 0.899,-41.135 0.985,-2.482 2.135,-4.888 3.429,-7.204 3.327,0.861 6.613,1.95 9.787,3.21 C -12.994,-29.602 -2.604,-15.693 0,0"
                   style="fill:#70a733;fill-opacity:1;fill-rule:nonzero;stroke:none"
                   id="path3116" /></g></g></g></g><g
           id="g3118"><g
             id="g3120" /><g
             id="g3126"><g
               clip-path="url(#clipPath3122)"
               opacity="0.550003"
               id="g3128"><g
                 transform="translate(435.8125,640.2866)"
                 id="g3130"><path
                   d="m 0,0 c -15.497,-0.863 -31.265,2.323 -42.803,9.299 -4.479,-12.916 -4.54,-27.432 0.899,-41.135 0.985,-2.482 2.135,-4.888 3.429,-7.204 3.327,0.861 6.613,1.95 9.787,3.21 C -12.994,-29.602 -2.604,-15.693 0,0"
                   style="fill:#0fa298;fill-opacity:1;fill-rule:nonzero;stroke:none"
                   id="path3132" /></g></g></g></g><g
           id="g3134"><g
             id="g3136" /><g
             id="g3142"><g
               clip-path="url(#clipPath3138)"
               opacity="0.550003"
               id="g3144"><g
                 transform="translate(427.0381,685.1812)"
                 id="g3146"><path
                   d="m 0,0 c -1.852,-0.735 -3.645,-1.557 -5.379,-2.451 4.818,-4.615 8.761,-10.321 11.392,-16.949 3.34,-8.417 4.136,-17.204 2.761,-25.495 8.65,0.483 17.215,2.224 24.914,5.279 23.034,9.142 36.373,28.112 40.289,49.721 C 51.851,15.249 20.204,8.02 0,0"
                   style="fill:#fbea23;fill-opacity:1;fill-rule:nonzero;stroke:none"
                   id="path3148" /></g></g></g></g><g
           id="g3150"><g
             id="g3152" /><g
             id="g3158"><g
               clip-path="url(#clipPath3154)"
               opacity="0.550003"
               id="g3160"><g
                 transform="translate(427.0381,685.1812)"
                 id="g3162"><path
                   d="m 0,0 c -1.852,-0.735 -3.645,-1.557 -5.379,-2.451 4.818,-4.615 8.761,-10.321 11.392,-16.949 3.34,-8.417 4.136,-17.204 2.761,-25.495 8.65,0.483 17.215,2.224 24.914,5.279 23.034,9.142 36.373,28.112 40.289,49.721 C 51.851,15.249 20.204,8.02 0,0"
                   style="fill:#0fa298;fill-opacity:1;fill-rule:nonzero;stroke:none"
                   id="path3164" /></g></g></g></g><g
           id="g3166"><g
             id="g3168" /><g
             id="g3174"><g
               clip-path="url(#clipPath3170)"
               opacity="0.550003"
               id="g3176"><g
                 transform="translate(433.0508,665.7808)"
                 id="g3178"><path
                   d="M 0,0 C -2.631,6.628 -6.573,12.334 -11.392,16.949 -25.23,9.802 -35.209,-2.264 -40.041,-16.195 -28.503,-23.171 -12.735,-26.357 2.762,-25.494 4.137,-17.204 3.34,-8.417 0,0"
                   style="fill:#70a733;fill-opacity:1;fill-rule:nonzero;stroke:none"
                   id="path3180" /></g></g></g></g><g
           id="g3182"><g
             id="g3184" /><g
             id="g3190"><g
               clip-path="url(#clipPath3186)"
               opacity="0.550003"
               id="g3192"><g
                 transform="translate(433.0508,665.7808)"
                 id="g3194"><path
                   d="M 0,0 C -2.631,6.628 -6.573,12.334 -11.392,16.949 -25.23,9.802 -35.209,-2.264 -40.041,-16.195 -28.503,-23.171 -12.735,-26.357 2.762,-25.494 4.137,-17.204 3.34,-8.417 0,0"
                   style="fill:#fbea23;fill-opacity:1;fill-rule:nonzero;stroke:none"
                   id="path3196" /></g></g></g></g><g
           id="g3198"><g
             id="g3200" /><g
             id="g3206"><g
               clip-path="url(#clipPath3202)"
               opacity="0.550003"
               id="g3208"><g
                 transform="translate(433.0508,665.7808)"
                 id="g3210"><path
                   d="M 0,0 C -2.631,6.628 -6.573,12.334 -11.392,16.949 -25.23,9.802 -35.209,-2.264 -40.041,-16.195 -28.503,-23.171 -12.735,-26.357 2.762,-25.494 4.137,-17.204 3.34,-8.417 0,0"
                   style="fill:#0fa298;fill-opacity:1;fill-rule:nonzero;stroke:none"
                   id="path3212" /></g></g></g></g><g
           id="g3214"
           transform="translate(93.5815,640.5972)"><path
             d="m 0,0 -0.904,-1.062 c -0.843,0.601 -1.644,0.862 -2.671,0.862 -1.623,0 -2.794,-0.822 -3.472,-2.363 -0.411,-0.922 -0.596,-2.023 -0.596,-3.645 0,-1.322 0.123,-2.103 0.452,-2.905 0.719,-1.722 2.178,-2.563 3.78,-2.563 1.048,0 1.849,0.261 2.753,0.881 l 0.905,-1.101 c -1.131,-0.721 -2.528,-1.122 -3.925,-1.122 -1.52,0 -3.02,0.622 -4.109,1.823 -1.192,1.321 -1.685,3.184 -1.685,5.226 0,4.086 2.507,7.09 5.917,7.09 1.356,0 2.589,-0.4 3.555,-1.121"
             style="fill:#2d2c2e;fill-opacity:1;fill-rule:nonzero;stroke:none"
             id="path3216" /></g><g
           id="g3218"
           transform="translate(101.8027,636.7915)"><path
             d="m 0,0 c -0.904,0 -1.746,-0.42 -2.095,-1.082 -0.329,-0.62 -0.493,-1.421 -0.493,-2.603 0,-1.402 0.246,-2.643 0.636,-3.264 0.37,-0.601 1.192,-1.001 2.076,-1.001 1.068,0 1.869,0.54 2.218,1.502 0.226,0.621 0.309,1.181 0.309,2.163 0,1.401 -0.144,2.343 -0.473,3.004 C 1.746,-0.4 0.843,0 0,0 m 0.021,1.282 c 1.705,0 2.814,-0.761 3.513,-1.742 0.637,-0.901 0.945,-2.083 0.945,-3.705 0,-3.325 -1.828,-5.087 -4.397,-5.087 -2.814,0 -4.417,2.023 -4.417,5.307 0,3.245 1.665,5.227 4.356,5.227"
             style="fill:#2d2c2e;fill-opacity:1;fill-rule:nonzero;stroke:none"
             id="path3220" /></g><g
           id="g3222"
           transform="translate(110.8867,637.5923)"><path
             d="m 0,0 1.562,0.421 c 0,0 0.37,-0.74 0.37,-1.562 C 3,-0.1 4.068,0.401 5.157,0.401 6.266,0.401 7.252,-0.18 7.664,-1.061 7.828,-1.422 7.91,-1.822 7.91,-2.223 l 0,-7.569 -1.623,0 0,6.748 c 0,1.063 -0.082,1.322 -0.37,1.662 -0.226,0.261 -0.657,0.421 -1.13,0.421 -0.822,0 -2.095,-0.641 -2.835,-1.401 l 0,-7.43 -1.561,0 0,7.689 C 0.391,-0.681 0,0 0,0"
             style="fill:#2d2c2e;fill-opacity:1;fill-rule:nonzero;stroke:none"
             id="path3224" /></g><g
           id="g3226"
           transform="translate(130.4082,637.353)"><path
             d="m 0,0 -0.596,-1.162 c -0.904,0.42 -1.664,0.721 -2.568,0.721 -1.171,0 -1.931,-0.662 -1.931,-1.642 0,-0.762 0.39,-1.223 1.479,-1.442 l 1.356,-0.281 c 1.849,-0.381 2.733,-1.301 2.733,-2.784 0,-1.941 -1.562,-3.264 -3.863,-3.264 -1.294,0 -2.712,0.381 -3.759,1.001 l 0.616,1.163 c 1.048,-0.622 2.116,-0.942 3.246,-0.942 1.253,0 2.075,0.66 2.075,1.723 0,0.901 -0.514,1.401 -1.684,1.641 l -1.274,0.26 c -1.685,0.342 -2.589,1.362 -2.589,2.744 0,1.803 1.5,3.065 3.636,3.065 C -2.054,0.801 -0.863,0.48 0,0"
             style="fill:#2d2c2e;fill-opacity:1;fill-rule:nonzero;stroke:none"
             id="path3228" /></g><g
           id="g3230"
           transform="translate(135.5269,637.6929)"><path
             d="m 0,0 1.583,0.301 0,-7.17 c 0,-0.942 0.143,-1.361 0.616,-1.682 0.328,-0.22 0.801,-0.341 1.253,-0.341 1.006,0 2.054,0.721 2.609,1.802 l 0,7.07 1.582,0.26 0,-7.269 c 0,-1.262 0.185,-1.763 0.698,-2.224 l -1.027,-1.06 c -0.678,0.541 -0.965,0.941 -1.109,1.601 -0.781,-1.02 -1.85,-1.521 -3.247,-1.521 -1.294,0 -2.259,0.541 -2.69,1.42 C 0.083,-8.431 0,-7.911 0,-7.33 L 0,0 z"
             style="fill:#2d2c2e;fill-opacity:1;fill-rule:nonzero;stroke:none"
             id="path3232" /></g><g
           id="g3234"
           transform="translate(150.5078,629.8022)"><path
             d="m 0,0 c 0,-0.781 0.123,-1.001 0.575,-1.001 0.062,0 0.206,0.04 0.206,0.04 L 1.109,-1.982 C 0.698,-2.163 0.514,-2.203 0.083,-2.203 c -0.494,0 -0.905,0.14 -1.213,0.421 -0.328,0.28 -0.493,0.701 -0.493,1.422 l 0,10.573 c 0,1.303 -0.247,2.044 -0.247,2.044 l 1.603,0.3 c 0,0 0.267,-0.841 0.267,-2.364 L 0,0 z"
             style="fill:#2d2c2e;fill-opacity:1;fill-rule:nonzero;stroke:none"
             id="path3236" /></g><g
           id="g3238"
           transform="translate(160.4326,637.7729)"><path
             d="m 0,0 -0.493,-1.182 -2.136,0 0,-6.428 c 0,-1.102 0.308,-1.482 1.315,-1.482 0.452,0 0.718,0.061 1.006,0.199 l 0.226,-1 c -0.514,-0.26 -1.089,-0.4 -1.808,-0.4 -0.534,0 -0.945,0.1 -1.335,0.279 -0.719,0.341 -0.986,0.983 -0.986,1.983 l 0,6.849 -1.336,0 0,1.182 1.336,0 c 0,0.961 0.164,2.523 0.164,2.523 l 1.684,0.361 c 0,0 -0.205,-1.562 -0.205,-2.884 L 0,0 z"
             style="fill:#2d2c2e;fill-opacity:1;fill-rule:nonzero;stroke:none"
             id="path3240" /></g><g
           id="g3242"
           transform="translate(164.709,637.7329)"><path
             d="m 0,0 1.664,0.261 0,-10.194 L 0,-9.933 0,0 z m 0.863,4.346 c 0.699,0 1.253,-0.54 1.253,-1.222 0,-0.681 -0.554,-1.222 -1.253,-1.222 -0.699,0 -1.254,0.541 -1.254,1.202 0,0.681 0.555,1.242 1.254,1.242"
             style="fill:#2d2c2e;fill-opacity:1;fill-rule:nonzero;stroke:none"
             id="path3244" /></g><g
           id="g3246"
           transform="translate(171.5107,637.5923)"><path
             d="m 0,0 1.562,0.421 c 0,0 0.37,-0.74 0.37,-1.562 C 3,-0.1 4.068,0.401 5.157,0.401 6.266,0.401 7.252,-0.18 7.664,-1.061 7.828,-1.422 7.91,-1.822 7.91,-2.223 l 0,-7.569 -1.623,0 0,6.748 c 0,1.063 -0.082,1.322 -0.37,1.662 -0.226,0.261 -0.657,0.421 -1.13,0.421 -0.822,0 -2.096,-0.641 -2.835,-1.401 l 0,-7.43 -1.561,0 0,7.689 C 0.391,-0.681 0,0 0,0"
             style="fill:#2d2c2e;fill-opacity:1;fill-rule:nonzero;stroke:none"
             id="path3248" /></g><g
           id="g3250"
           transform="translate(188.1558,636.6509)"><path
             d="m 0,0 c -1.273,0 -1.931,-0.64 -1.931,-2.022 0,-1.282 0.678,-1.942 1.973,-1.942 1.232,0 1.848,0.66 1.848,2.002 C 1.89,-0.6 1.356,0 0,0 M 4.582,1.202 5.568,0.241 C 4.931,-0.199 4.458,-0.36 3.842,-0.36 3.575,-0.36 3.329,-0.319 3.144,-0.239 3.555,-0.74 3.76,-1.302 3.76,-1.941 3.76,-3.063 3.185,-4.104 2.24,-4.686 1.726,-5.006 1.068,-5.126 0.329,-5.126 -1.047,-5.607 -1.52,-5.947 -1.52,-6.288 c 0,-0.3 0.308,-0.481 0.822,-0.481 l 1.643,0 c 1.192,0 1.849,-0.14 2.466,-0.56 0.801,-0.54 1.13,-1.242 1.13,-2.104 0,-2.162 -1.583,-3.143 -4.068,-3.143 -3.205,0 -4.438,1.122 -4.438,2.544 0,0.36 0.062,0.66 0.205,1.06 l 1.685,0.141 c -0.144,-0.221 -0.287,-0.581 -0.287,-0.901 0,-0.521 0.225,-0.942 0.595,-1.162 0.494,-0.281 1.254,-0.46 2.076,-0.46 1.581,0 2.485,0.5 2.485,1.742 0,0.541 -0.185,0.962 -0.554,1.202 -0.39,0.26 -1.007,0.36 -2.014,0.36 -0.411,0 -1.253,-0.02 -1.581,-0.02 -1.213,0 -1.932,0.541 -1.932,1.442 0,0.801 0.452,1.281 1.849,1.702 -1.376,0.421 -2.301,1.562 -2.301,2.884 0,2.002 1.541,3.364 3.781,3.364 1.561,0 1.869,-0.56 3.122,-0.56 0.534,0 0.925,0.12 1.418,0.44"
             style="fill:#2d2c2e;fill-opacity:1;fill-rule:nonzero;stroke:none"
             id="path3252" /></g><path
           d="m 204.391,641.539 1.644,0 0,-13.738 -1.644,0 0,13.738 z"
           style="fill:#2d2c2e;fill-opacity:1;fill-rule:nonzero;stroke:none"
           id="path3254" /><g
           id="g3256"
           transform="translate(216.7017,641.5386)"><path
             d="m 0,0 9.327,0 -0.102,-1.383 -3.822,0 0,-12.355 -1.623,0 0,12.355 -3.78,0 L 0,0 z"
             style="fill:#2d2c2e;fill-opacity:1;fill-rule:nonzero;stroke:none"
             id="path3258" /></g><g
           id="g3260"
           transform="translate(229.606,633.7075)"><path
             d="M 0,0 4.684,0 C 4.664,1.082 4.52,1.742 4.212,2.223 3.862,2.764 3.143,3.104 2.363,3.104 0.904,3.104 0.082,2.063 0,0 m 5.527,-3.886 0.616,-1 C 5.238,-5.688 4.006,-6.128 2.692,-6.128 c -2.836,0 -4.542,2.003 -4.542,5.307 0,1.682 0.37,2.764 1.233,3.764 0.823,0.942 1.828,1.383 3.062,1.383 1.109,0 2.075,-0.381 2.773,-1.081 0.884,-0.882 1.13,-1.823 1.171,-4.207 l 0,-0.22 -6.389,0 0,-0.239 c 0,-0.941 0.123,-1.663 0.472,-2.183 0.576,-0.862 1.521,-1.223 2.549,-1.223 0.985,0 1.787,0.302 2.506,0.941"
             style="fill:#2d2c2e;fill-opacity:1;fill-rule:nonzero;stroke:none"
             id="path3262" /></g><g
           id="g3264"
           transform="translate(247.3799,636.9526)"><path
             d="m 0,0 -0.882,-1.082 c -0.72,0.581 -1.172,0.801 -1.953,0.801 -0.801,0 -1.561,-0.441 -1.931,-1.121 -0.39,-0.702 -0.575,-1.803 -0.575,-3.264 0,-2.244 0.883,-3.465 2.526,-3.465 0.823,0 1.604,0.38 2.199,1.081 l 0.883,-1.002 c -0.944,-0.94 -1.849,-1.321 -3.122,-1.321 -1.459,0 -2.548,0.5 -3.267,1.502 -0.677,0.961 -0.986,2.062 -0.986,3.545 0,2.182 0.657,3.385 1.54,4.245 0.802,0.781 1.685,1.162 2.774,1.162 C -1.5,1.081 -0.739,0.6 0,0"
             style="fill:#2d2c2e;fill-opacity:1;fill-rule:nonzero;stroke:none"
             id="path3266" /></g><g
           id="g3268"
           transform="translate(251.7798,642.1382)"><path
             d="m 0,0 1.602,0.301 c 0,0 0.267,-0.841 0.267,-2.364 l 0,-2.322 c 0,-0.641 -0.061,-1.362 -0.061,-1.362 0.924,0.841 2.095,1.582 3.41,1.582 1.233,0 2.343,-0.66 2.63,-1.582 0.123,-0.4 0.165,-0.721 0.165,-1.442 l 0,-7.149 -1.582,0 0,6.889 c 0,0.741 -0.103,1.201 -0.39,1.481 -0.248,0.241 -0.679,0.401 -1.192,0.401 -0.986,0 -2.096,-0.621 -2.98,-1.682 l 0,-7.089 -1.602,0 0,12.296 C 0.267,-0.74 0,0 0,0"
             style="fill:#2d2c2e;fill-opacity:1;fill-rule:nonzero;stroke:none"
             id="path3270" /></g><g
           id="g3272"
           transform="translate(264.7881,637.5923)"><path
             d="m 0,0 1.561,0.421 c 0,0 0.37,-0.74 0.37,-1.562 C 3,-0.1 4.068,0.401 5.156,0.401 c 1.11,0 2.096,-0.581 2.507,-1.462 0.165,-0.361 0.247,-0.761 0.247,-1.162 l 0,-7.569 -1.623,0 0,6.748 c 0,1.063 -0.083,1.322 -0.37,1.662 -0.227,0.261 -0.657,0.421 -1.129,0.421 -0.823,0 -2.096,-0.641 -2.836,-1.401 l 0,-7.43 -1.561,0 0,7.689 C 0.391,-0.681 0,0 0,0"
             style="fill:#2d2c2e;fill-opacity:1;fill-rule:nonzero;stroke:none"
             id="path3274" /></g><g
           id="g3276"
           transform="translate(281.7612,636.7915)"><path
             d="m 0,0 c -0.903,0 -1.746,-0.42 -2.095,-1.082 -0.329,-0.62 -0.493,-1.421 -0.493,-2.603 0,-1.402 0.247,-2.643 0.637,-3.264 0.369,-0.601 1.192,-1.001 2.075,-1.001 1.068,0 1.87,0.54 2.219,1.502 0.225,0.621 0.308,1.181 0.308,2.163 0,1.401 -0.144,2.343 -0.473,3.004 C 1.747,-0.4 0.843,0 0,0 m 0.021,1.282 c 1.705,0 2.815,-0.761 3.513,-1.742 0.637,-0.901 0.945,-2.083 0.945,-3.705 0,-3.325 -1.828,-5.087 -4.396,-5.087 -2.814,0 -4.418,2.023 -4.418,5.307 0,3.245 1.665,5.227 4.356,5.227"
             style="fill:#2d2c2e;fill-opacity:1;fill-rule:nonzero;stroke:none"
             id="path3278" /></g><g
           id="g3280"
           transform="translate(292.8599,629.8022)"><path
             d="m 0,0 c 0,-0.781 0.123,-1.001 0.575,-1.001 0.062,0 0.205,0.04 0.205,0.04 L 1.109,-1.982 C 0.698,-2.163 0.513,-2.203 0.083,-2.203 c -0.494,0 -0.905,0.14 -1.213,0.421 -0.329,0.28 -0.493,0.701 -0.493,1.422 l 0,10.573 c 0,1.303 -0.247,2.044 -0.247,2.044 l 1.602,0.3 c 0,0 0.268,-0.841 0.268,-2.364 L 0,0 z"
             style="fill:#2d2c2e;fill-opacity:1;fill-rule:nonzero;stroke:none"
             id="path3282" /></g><g
           id="g3284"
           transform="translate(302.0439,636.7915)"><path
             d="m 0,0 c -0.902,0 -1.744,-0.42 -2.094,-1.082 -0.329,-0.62 -0.494,-1.421 -0.494,-2.603 0,-1.402 0.248,-2.643 0.638,-3.264 0.369,-0.601 1.191,-1.001 2.074,-1.001 1.069,0 1.87,0.54 2.22,1.502 0.224,0.621 0.308,1.181 0.308,2.163 0,1.401 -0.144,2.343 -0.472,3.004 C 1.748,-0.4 0.844,0 0,0 m 0.022,1.282 c 1.705,0 2.814,-0.761 3.513,-1.742 0.637,-0.901 0.945,-2.083 0.945,-3.705 0,-3.325 -1.828,-5.087 -4.397,-5.087 -2.813,0 -4.417,2.023 -4.417,5.307 0,3.245 1.665,5.227 4.356,5.227"
             style="fill:#2d2c2e;fill-opacity:1;fill-rule:nonzero;stroke:none"
             id="path3286" /></g><g
           id="g3288"
           transform="translate(314.8271,636.6509)"><path
             d="m 0,0 c -1.273,0 -1.93,-0.64 -1.93,-2.022 0,-1.282 0.678,-1.942 1.972,-1.942 1.232,0 1.849,0.66 1.849,2.002 C 1.891,-0.6 1.357,0 0,0 M 4.582,1.202 5.568,0.241 C 4.932,-0.199 4.459,-0.36 3.842,-0.36 c -0.266,0 -0.513,0.041 -0.697,0.121 0.41,-0.501 0.615,-1.063 0.615,-1.702 0,-1.122 -0.574,-2.163 -1.52,-2.745 -0.513,-0.32 -1.172,-0.44 -1.911,-0.44 -1.376,-0.481 -1.849,-0.821 -1.849,-1.162 0,-0.3 0.309,-0.481 0.823,-0.481 l 1.642,0 c 1.192,0 1.85,-0.14 2.466,-0.56 0.801,-0.54 1.13,-1.242 1.13,-2.104 0,-2.162 -1.582,-3.143 -4.068,-3.143 -3.205,0 -4.438,1.122 -4.438,2.544 0,0.36 0.063,0.66 0.206,1.06 l 1.685,0.141 c -0.145,-0.221 -0.288,-0.581 -0.288,-0.901 0,-0.521 0.225,-0.942 0.595,-1.162 0.494,-0.281 1.253,-0.46 2.076,-0.46 1.582,0 2.486,0.5 2.486,1.742 0,0.541 -0.185,0.962 -0.555,1.202 -0.39,0.26 -1.007,0.36 -2.013,0.36 -0.412,0 -1.253,-0.02 -1.582,-0.02 -1.212,0 -1.932,0.541 -1.932,1.442 0,0.801 0.453,1.281 1.849,1.702 -1.376,0.421 -2.3,1.562 -2.3,2.884 0,2.002 1.541,3.364 3.78,3.364 1.562,0 1.869,-0.56 3.122,-0.56 0.534,0 0.925,0.12 1.418,0.44"
             style="fill:#2d2c2e;fill-opacity:1;fill-rule:nonzero;stroke:none"
             id="path3290" /></g><g
           id="g3292"
           transform="translate(322.9463,637.5522)"><path
             d="m 0,0 1.582,0.521 2.096,-6.468 c 0.307,-0.942 0.616,-2.484 0.616,-2.484 l 0.041,0 c 0,0 0.39,1.283 0.637,2.103 l 2.013,6.549 1.829,0 -3.513,-10.334 C 4.603,-12.115 3.78,-13.438 1.993,-13.857 l -0.472,1.06 c 1.315,0.401 1.807,1.042 2.362,3.065 L 3.227,-9.833 c -0.124,0.642 -0.68,2.584 -1.029,3.585 L 0,0 z"
             style="fill:#2d2c2e;fill-opacity:1;fill-rule:nonzero;stroke:none"
             id="path3294" /></g><g
           id="g3296"
           transform="translate(106.7554,685.3774)"><path
             d="m 0,0 0,0.514 c 0,3.262 -0.344,4.98 -1.374,6.611 -1.117,1.718 -2.748,2.576 -5.066,2.576 -4.378,0 -6.868,-3.434 -6.868,-9.53 L -13.308,0 0,0 z M 11.419,-21.895 C 6.353,-26.016 1.03,-27.99 -5.151,-27.99 c -12.621,0 -20.777,8.928 -20.777,22.752 0,7.898 1.631,13.136 5.493,17.428 3.607,4.036 7.986,5.925 13.824,5.925 5.065,0 9.874,-1.718 12.707,-4.636 4.034,-4.121 5.839,-10.045 5.839,-19.233 l 0,-2.66 -25.415,0 0,-0.345 c 0,-6.782 3.349,-10.644 9.273,-10.644 3.95,0 7.641,1.458 11.161,4.378 l 4.465,-6.87 z"
             style="fill:#2d2c2e;fill-opacity:1;fill-rule:nonzero;stroke:none"
             id="path3298" /></g><g
           id="g3300"
           transform="translate(144.188,713.7954)"><path
             d="m 0,0 c -2.918,0 -4.808,-1.803 -4.808,-4.98 l 0,-6.268 11.161,0 -2.919,-7.898 -8.157,0 0,-36.06 -11.247,0 0,36.06 -3.949,0 0,7.898 4.207,0 c -0.258,1.803 -0.429,4.036 -0.429,6.01 0,8.672 5.15,13.652 14.165,13.652 3.778,0 6.869,-0.773 10.39,-2.747 L 4.722,-1.46 C 2.233,-0.258 1.374,0 0,0"
             style="fill:#2d2c2e;fill-opacity:1;fill-rule:nonzero;stroke:none"
             id="path3302" /></g><g
           id="g3304"
           transform="translate(168.9014,703.5786)"><path
             d="m 0,0 0,-44.989 -11.504,0 0,43.185 L 0,0 z m 1.374,11.075 c 0,-3.95 -3.178,-7.126 -7.127,-7.126 -3.863,0 -7.04,3.176 -7.04,7.126 0,3.949 3.262,7.127 7.212,7.127 3.863,0 6.955,-3.178 6.955,-7.127"
             style="fill:#2d2c2e;fill-opacity:1;fill-rule:nonzero;stroke:none"
             id="path3306" /></g><g
           id="g3308"
           transform="translate(205.1313,691.2153)"><path
             d="m 0,0 c -2.318,2.146 -4.808,3.434 -6.954,3.434 -5.151,0 -7.47,-4.464 -7.47,-14.768 0,-5.752 0.774,-9.187 2.232,-11.076 1.202,-1.545 3.177,-2.489 5.151,-2.489 2.663,0 5.067,1.116 7.899,3.607 l 0.688,0.6 5.237,-6.954 c -1.718,-1.718 -2.49,-2.318 -4.036,-3.262 -3.09,-1.805 -6.525,-2.747 -10.732,-2.747 -12.105,0 -19.146,8.414 -19.146,22.666 0,10.13 3.864,16.828 9.016,20.347 2.918,1.975 7.212,3.263 10.903,3.263 2.919,0 6.096,-0.686 8.501,-1.975 C 2.92,9.788 3.691,9.186 5.581,7.555 L 0,0 z"
             style="fill:#2d2c2e;fill-opacity:1;fill-rule:nonzero;stroke:none"
             id="path3310" /></g><g
           id="g3312"
           transform="translate(241.6191,685.3774)"><path
             d="m 0,0 0,0.514 c 0,3.262 -0.344,4.98 -1.374,6.611 -1.115,1.718 -2.747,2.576 -5.064,2.576 -4.38,0 -6.87,-3.434 -6.87,-9.53 L -13.308,0 0,0 z M 11.418,-21.895 C 6.354,-26.016 1.031,-27.99 -5.151,-27.99 c -12.621,0 -20.779,8.928 -20.779,22.752 0,7.898 1.631,13.136 5.497,17.428 3.605,4.036 7.983,5.925 13.822,5.925 5.066,0 9.873,-1.718 12.707,-4.636 4.035,-4.121 5.838,-10.045 5.838,-19.233 l 0,-2.66 -25.413,0 0,-0.345 c 0,-6.782 3.347,-10.644 9.272,-10.644 3.949,0 7.641,1.458 11.161,4.378 l 4.464,-6.87 z"
             style="fill:#2d2c2e;fill-opacity:1;fill-rule:nonzero;stroke:none"
             id="path3314" /></g><g
           id="g3316"
           transform="translate(271.1528,703.6636)"><path
             d="m 0,0 c 1.031,-1.803 1.631,-3.691 1.631,-5.494 1.718,1.202 3.178,2.231 5.067,3.263 2.318,1.202 5.323,1.888 7.898,1.888 4.894,0 9.188,-2.575 10.561,-6.353 0.6,-1.631 0.858,-3.521 0.858,-6.268 l 0,-32.11 -11.332,0 0,28.591 c 0,4.979 -0.86,6.438 -3.865,6.438 -2.318,0 -5.322,-1.545 -7.985,-3.949 l 0,-31.08 -11.503,0 0,31.852 c 0,3.779 -0.516,7.384 -1.547,10.304 L 0,0 z"
             style="fill:#2d2c2e;fill-opacity:1;fill-rule:nonzero;stroke:none"
             id="path3318" /></g><g
           id="g3320"
           transform="translate(327.1318,694.6489)"><path
             d="m 0,0 -7.385,0 0,-22.065 c 0,-5.581 1.031,-7.04 4.981,-7.04 1.029,0 2.06,0.256 4.121,0.859 l 1.459,-6.869 c -3.348,-1.374 -6.354,-1.974 -9.358,-1.974 -5.838,0 -10.474,2.575 -11.847,6.439 -0.688,1.888 -0.774,2.747 -0.774,6.782 l 0,23.868 -4.379,0 0,7.899 4.379,0 c 0,4.293 0,7.127 0.429,10.389 l 11.677,2.919 C -7.127,17.171 -7.385,12.364 -7.385,7.899 l 10.304,0 L 0,0 z"
             style="fill:#2d2c2e;fill-opacity:1;fill-rule:nonzero;stroke:none"
             id="path3322" /></g></g></g></g></svg>