<?xml version="1.0" encoding="UTF-8" standalone="no"?>
<!-- Created with Inkscape (http://www.inkscape.org/) -->

<svg
   xmlns:dc="http://purl.org/dc/elements/1.1/"
   xmlns:cc="http://creativecommons.org/ns#"
   xmlns:rdf="http://www.w3.org/1999/02/22-rdf-syntax-ns#"
   xmlns:svg="http://www.w3.org/2000/svg"
   xmlns="http://www.w3.org/2000/svg"
   xmlns:sodipodi="http://sodipodi.sourceforge.net/DTD/sodipodi-0.dtd"
   xmlns:inkscape="http://www.inkscape.org/namespaces/inkscape"
   id="svg3004"
   version="1.1"
   inkscape:version="0.91 r13725"
   width="744.1"
   height="1052.3625"
   xml:space="preserve"
   sodipodi:docname="eficent_io_logo.svg"><metadata
     id="metadata3010"><rdf:RDF><cc:Work
         rdf:about=""><dc:format>image/svg+xml</dc:format><dc:type
           rdf:resource="http://purl.org/dc/dcmitype/StillImage" /><dc:title></dc:title></cc:Work></rdf:RDF></metadata><defs
     id="defs3008"><clipPath
       clipPathUnits="userSpaceOnUse"
       id="clipPath3018"><path
         d="m 0,841.89 595.28,0 L 595.28,0 0,0 0,841.89 z"
         id="path3020" /></clipPath><clipPath
       clipPathUnits="userSpaceOnUse"
       id="clipPath3026"><path
         d="m 344.798,694.042 52.54,0 0,-94.911 -52.54,0 0,94.911 z"
         id="path3028" /></clipPath><clipPath
       clipPathUnits="userSpaceOnUse"
       id="clipPath3042"><path
         d="m 376.248,774.431 125.993,0 0,-91.701 -125.993,0 0,91.701 z"
         id="path3044" /></clipPath><clipPath
       clipPathUnits="userSpaceOnUse"
       id="clipPath3058"><path
         d="m 375.407,695.888 46.252,0 0,-46.303 -46.252,0 0,46.303 z"
         id="path3060" /></clipPath><clipPath
       clipPathUnits="userSpaceOnUse"
       id="clipPath3074"><path
         d="m 375.407,695.888 46.252,0 0,-46.303 -46.252,0 0,46.303 z"
         id="path3076" /></clipPath><clipPath
       clipPathUnits="userSpaceOnUse"
       id="clipPath3090"><path
         d="m 397.338,695.287 132.136,0 0,-125.818 -132.136,0 0,125.818 z"
         id="path3092" /></clipPath><clipPath
       clipPathUnits="userSpaceOnUse"
       id="clipPath3106"><path
         d="m 389.733,649.585 46.08,0 0,-48.338 -46.08,0 0,48.338 z"
         id="path3108" /></clipPath><clipPath
       clipPathUnits="userSpaceOnUse"
       id="clipPath3122"><path
         d="m 389.733,649.585 46.08,0 0,-48.338 -46.08,0 0,48.338 z"
         id="path3124" /></clipPath><clipPath
       clipPathUnits="userSpaceOnUse"
       id="clipPath3138"><path
         d="m 421.659,697.013 79.356,0 0,-56.726 -79.356,0 0,56.726 z"
         id="path3140" /></clipPath><clipPath
       clipPathUnits="userSpaceOnUse"
       id="clipPath3154"><path
         d="m 421.659,697.013 79.356,0 0,-56.726 -79.356,0 0,56.726 z"
         id="path3156" /></clipPath><clipPath
       clipPathUnits="userSpaceOnUse"
       id="clipPath3170"><path
         d="m 393.01,682.73 43.444,0 0,-42.582 -43.444,0 0,42.582 z"
         id="path3172" /></clipPath><clipPath
       clipPathUnits="userSpaceOnUse"
       id="clipPath3186"><path
         d="m 393.01,682.73 43.444,0 0,-42.582 -43.444,0 0,42.582 z"
         id="path3188" /></clipPath><clipPath
       clipPathUnits="userSpaceOnUse"
       id="clipPath3202"><path
         d="m 393.01,682.73 43.444,0 0,-42.582 -43.444,0 0,42.582 z"
         id="path3204" /></clipPath></defs><sodipodi:namedview
     pagecolor="#ffffff"
     bordercolor="#666666"
     borderopacity="1"
     objecttolerance="10"
     gridtolerance="10"
     guidetolerance="10"
     inkscape:pageopacity="0"
     inkscape:pageshadow="2"
     inkscape:window-width="1855"
     inkscape:window-height="1056"
     id="namedview3006"
     showgrid="false"
     inkscape:zoom="1.6451376"
     inkscape:cx="344.28949"
     inkscape:cy="811.16333"
     inkscape:window-x="65"
     inkscape:window-y="121"
     inkscape:window-maximized="1"
     inkscape:current-layer="g3016"
     showguides="true"
     inkscape:guide-bbox="true"><sodipodi:guide
       position="360.40087,879.40391"
       orientation="0,1"
       id="guide4288" /><sodipodi:guide
       position="367.92265,823.3129"
       orientation="0,1"
       id="guide4290" /><sodipodi:guide
       position="415.63225,821.16381"
       orientation="0,1"
       id="guide4387" /></sodipodi:namedview><g
     id="g3012"
     inkscape:groupmode="layer"
     inkscape:label="eficent_JORDI"
     transform="matrix(1.25,0,0,-1.25,0,1052.3625)"><g
       id="g3014"><g
         id="g3016"
         clip-path="url(#clipPath3018)"><g
           id="g3022"
           transform="translate(28.8,0)"><g
             id="g3024" /><g
             id="g3030"><g
               clip-path="url(#clipPath3026)"
               id="g3032"
               style="opacity:0.55000299"><g
                 transform="translate(393.0098,649.5854)"
                 id="g3034"><path
                   d="m 0,0 c -10.796,6.527 -17.89,16.368 -17.594,29.304 0.126,5.531 0.404,10.55 0.832,15.153 -1.382,-0.404 -2.756,-0.866 -4.119,-1.407 -23.982,-9.519 -30.61,-35.667 -25.926,-61.323 5.744,-31.463 29.328,-35.709 51.135,-30.066 -1.294,2.317 -2.444,4.722 -3.43,7.204 C -4.54,-27.432 -4.479,-12.916 0,0"
                   style="fill:#70a733;fill-opacity:1;fill-rule:nonzero;stroke:none"
                   id="path3036"
                   inkscape:connector-curvature="0" /></g></g></g></g><g
           id="g3038"
           transform="translate(28.8,0)"><g
             id="g3040" /><g
             id="g3046"><g
               clip-path="url(#clipPath3042)"
               id="g3048"
               style="opacity:0.55000299"><g
                 transform="translate(421.6592,682.73)"
                 id="g3050"><path
                   d="m 0,0 c 1.734,0.895 3.527,1.716 5.379,2.451 20.204,8.02 51.85,15.249 73.976,10.106 1.932,10.656 1.583,21.951 -1.048,33.034 C 65.352,100.169 14.231,99.232 -7.003,78.915 -30.557,56.376 -42.236,45.388 -45.411,11.313 -29.114,16.075 -11.878,11.377 0,0"
                   style="fill:#fbea23;fill-opacity:1;fill-rule:nonzero;stroke:none"
                   id="path3052"
                   inkscape:connector-curvature="0" /></g></g></g></g><g
           id="g3054"
           transform="translate(28.8,0)"><g
             id="g3056" /><g
             id="g3062"><g
               clip-path="url(#clipPath3058)"
               id="g3064"
               style="opacity:0.55000299"><g
                 transform="translate(393.0098,649.5854)"
                 id="g3066"><path
                   d="M 0,0 C 4.832,13.932 14.811,25.997 28.649,33.145 16.771,44.521 -0.465,49.219 -16.762,44.457 -17.19,39.854 -17.468,34.835 -17.594,29.304 -17.89,16.368 -10.796,6.527 0,0"
                   style="fill:#70a733;fill-opacity:1;fill-rule:nonzero;stroke:none"
                   id="path3068"
                   inkscape:connector-curvature="0" /></g></g></g></g><g
           id="g3070"
           transform="translate(28.8,0)"><g
             id="g3072" /><g
             id="g3078"><g
               clip-path="url(#clipPath3074)"
               id="g3080"
               style="opacity:0.55000299"><g
                 transform="translate(393.0098,649.5854)"
                 id="g3082"><path
                   d="M 0,0 C 4.832,13.932 14.811,25.997 28.649,33.145 16.771,44.521 -0.465,49.219 -16.762,44.457 -17.19,39.854 -17.468,34.835 -17.594,29.304 -17.89,16.368 -10.796,6.527 0,0"
                   style="fill:#fbea23;fill-opacity:1;fill-rule:nonzero;stroke:none"
                   id="path3084"
                   inkscape:connector-curvature="0" /></g></g></g></g><g
           id="g3086"
           transform="translate(28.8,0)"><g
             id="g3088" /><g
             id="g3094"><g
               clip-path="url(#clipPath3090)"
               id="g3096"
               style="opacity:0.55000299"><g
                 transform="translate(524.4756,676.7515)"
                 id="g3098"><path
                   d="m 0,0 c -3.662,10.268 -12.366,15.956 -23.461,18.535 -3.916,-21.609 -17.255,-40.579 -40.289,-49.722 -7.698,-3.054 -16.264,-4.795 -24.913,-5.278 -2.604,-15.693 -12.994,-29.601 -28.688,-35.83 -3.174,-1.26 -6.461,-2.349 -9.787,-3.21 14.497,-25.979 47.198,-40.643 73.302,-25.925 C 6.396,-67.472 11.664,-32.705 0,0"
                   style="fill:#0fa298;fill-opacity:1;fill-rule:nonzero;stroke:none"
                   id="path3100"
                   inkscape:connector-curvature="0" /></g></g></g></g><g
           id="g3102"
           transform="translate(28.8,0)"><g
             id="g3104" /><g
             id="g3110"><g
               clip-path="url(#clipPath3106)"
               id="g3112"
               style="opacity:0.55000299"><g
                 transform="translate(435.8125,640.2866)"
                 id="g3114"><path
                   d="m 0,0 c -15.497,-0.863 -31.265,2.323 -42.803,9.299 -4.479,-12.916 -4.54,-27.432 0.899,-41.135 0.985,-2.482 2.135,-4.888 3.429,-7.204 3.327,0.861 6.613,1.95 9.787,3.21 C -12.994,-29.602 -2.604,-15.693 0,0"
                   style="fill:#70a733;fill-opacity:1;fill-rule:nonzero;stroke:none"
                   id="path3116"
                   inkscape:connector-curvature="0" /></g></g></g></g><g
           id="g3118"
           transform="translate(28.8,0)"><g
             id="g3120" /><g
             id="g3126"><g
               clip-path="url(#clipPath3122)"
               id="g3128"
               style="opacity:0.55000299"><g
                 transform="translate(435.8125,640.2866)"
                 id="g3130"><path
                   d="m 0,0 c -15.497,-0.863 -31.265,2.323 -42.803,9.299 -4.479,-12.916 -4.54,-27.432 0.899,-41.135 0.985,-2.482 2.135,-4.888 3.429,-7.204 3.327,0.861 6.613,1.95 9.787,3.21 C -12.994,-29.602 -2.604,-15.693 0,0"
                   style="fill:#0fa298;fill-opacity:1;fill-rule:nonzero;stroke:none"
                   id="path3132"
                   inkscape:connector-curvature="0" /></g></g></g></g><g
           id="g3134"
           transform="translate(28.8,0)"><g
             id="g3136" /><g
             id="g3142"><g
               clip-path="url(#clipPath3138)"
               id="g3144"
               style="opacity:0.55000299"><g
                 transform="translate(427.0381,685.1812)"
                 id="g3146"><path
                   d="m 0,0 c -1.852,-0.735 -3.645,-1.557 -5.379,-2.451 4.818,-4.615 8.761,-10.321 11.392,-16.949 3.34,-8.417 4.136,-17.204 2.761,-25.495 8.65,0.483 17.215,2.224 24.914,5.279 23.034,9.142 36.373,28.112 40.289,49.721 C 51.851,15.249 20.204,8.02 0,0"
                   style="fill:#fbea23;fill-opacity:1;fill-rule:nonzero;stroke:none"
                   id="path3148"
                   inkscape:connector-curvature="0" /></g></g></g></g><g
           id="g3150"
           transform="translate(28.8,0)"><g
             id="g3152" /><g
             id="g3158"><g
               clip-path="url(#clipPath3154)"
               id="g3160"
               style="opacity:0.55000299"><g
                 transform="translate(427.0381,685.1812)"
                 id="g3162"><path
                   d="m 0,0 c -1.852,-0.735 -3.645,-1.557 -5.379,-2.451 4.818,-4.615 8.761,-10.321 11.392,-16.949 3.34,-8.417 4.136,-17.204 2.761,-25.495 8.65,0.483 17.215,2.224 24.914,5.279 23.034,9.142 36.373,28.112 40.289,49.721 C 51.851,15.249 20.204,8.02 0,0"
                   style="fill:#0fa298;fill-opacity:1;fill-rule:nonzero;stroke:none"
                   id="path3164"
                   inkscape:connector-curvature="0" /></g></g></g></g><g
           id="g3166"
           transform="translate(28.8,0)"><g
             id="g3168" /><g
             id="g3174"><g
               clip-path="url(#clipPath3170)"
               id="g3176"
               style="opacity:0.55000299"><g
                 transform="translate(433.0508,665.7808)"
                 id="g3178"><path
                   d="M 0,0 C -2.631,6.628 -6.573,12.334 -11.392,16.949 -25.23,9.802 -35.209,-2.264 -40.041,-16.195 -28.503,-23.171 -12.735,-26.357 2.762,-25.494 4.137,-17.204 3.34,-8.417 0,0"
                   style="fill:#70a733;fill-opacity:1;fill-rule:nonzero;stroke:none"
                   id="path3180"
                   inkscape:connector-curvature="0" /></g></g></g></g><g
           id="g3182"
           transform="translate(28.8,0)"><g
             id="g3184" /><g
             id="g3190"><g
               clip-path="url(#clipPath3186)"
               id="g3192"
               style="opacity:0.55000299"><g
                 transform="translate(433.0508,665.7808)"
                 id="g3194"><path
                   d="M 0,0 C -2.631,6.628 -6.573,12.334 -11.392,16.949 -25.23,9.802 -35.209,-2.264 -40.041,-16.195 -28.503,-23.171 -12.735,-26.357 2.762,-25.494 4.137,-17.204 3.34,-8.417 0,0"
                   style="fill:#fbea23;fill-opacity:1;fill-rule:nonzero;stroke:none"
                   id="path3196"
                   inkscape:connector-curvature="0" /></g></g></g></g><g
           id="g3198"
           transform="translate(28.8,0)"><g
             id="g3200" /><g
             id="g3206"><g
               clip-path="url(#clipPath3202)"
               id="g3208"
               style="opacity:0.55000299"><g
                 transform="translate(433.0508,665.7808)"
                 id="g3210"><path
                   d="M 0,0 C -2.631,6.628 -6.573,12.334 -11.392,16.949 -25.23,9.802 -35.209,-2.264 -40.041,-16.195 -28.503,-23.171 -12.735,-26.357 2.762,-25.494 4.137,-17.204 3.34,-8.417 0,0"
                   style="fill:#0fa298;fill-opacity:1;fill-rule:nonzero;stroke:none"
                   id="path3212"
                   inkscape:connector-curvature="0" /></g></g></g></g><g
           id="g3242"
           transform="matrix(4.4055711,0,0,4.4055711,309.7964,702.35082)"><path
             d="m 0,0 1.664,0.261 0,-10.194 L 0,-9.933 0,0 Z m 0.863,4.346 c 0.699,0 1.253,-0.54 1.253,-1.222 0,-0.681 -0.554,-1.222 -1.253,-1.222 -0.699,0 -1.254,0.541 -1.254,1.202 0,0.681 0.555,1.242 1.254,1.242"
             style="fill:#2d2c2e;fill-opacity:1;fill-rule:nonzero;stroke:none"
             id="path3244"
             inkscape:connector-curvature="0" /></g><g
           id="g3276"
           transform="matrix(4.3349401,0,0,4.3349401,374.19407,622.01933)"><path
             d="m -7.2915188,17.387468 c -0.903,0 -1.746,-0.42 -2.095,-1.082 -0.329,-0.62 -0.493,-1.421 -0.493,-2.603 0,-1.402 0.247,-2.643 0.637,-3.264 0.369,-0.601 1.192,-1.001 2.075,-1.001 1.068,0 1.87,0.54 2.219,1.502 0.225,0.621 0.308,1.181 0.308,2.163 0,1.401 -0.144,2.343 -0.473,3.004 -0.431,0.881 -1.335,1.281 -2.178,1.281 m 0.021,1.282 c 1.705,0 2.815,-0.761 3.513,-1.742 0.637,-0.901 0.945,-2.083 0.945,-3.705 0,-3.325 -1.828,-5.087 -4.396,-5.087 -2.8140002,0 -4.4180002,2.023 -4.4180002,5.307 0,3.245 1.6650002,5.227 4.3560002,5.227"
             style="fill:#2d2c2e;fill-opacity:1;fill-rule:nonzero;stroke:none"
             id="path3278"
             inkscape:connector-curvature="0" /></g><g
           id="g3296"
           transform="translate(65.1554,685.3774)"><path
             d="m 0,0 0,0.514 c 0,3.262 -0.344,4.98 -1.374,6.611 -1.117,1.718 -2.748,2.576 -5.066,2.576 -4.378,0 -6.868,-3.434 -6.868,-9.53 L -13.308,0 0,0 Z M 11.419,-21.895 C 6.353,-26.016 1.03,-27.99 -5.151,-27.99 c -12.621,0 -20.777,8.928 -20.777,22.752 0,7.898 1.631,13.136 5.493,17.428 3.607,4.036 7.986,5.925 13.824,5.925 5.065,0 9.874,-1.718 12.707,-4.636 4.034,-4.121 5.839,-10.045 5.839,-19.233 l 0,-2.66 -25.415,0 0,-0.345 c 0,-6.782 3.349,-10.644 9.273,-10.644 3.95,0 7.641,1.458 11.161,4.378 l 4.465,-6.87 z"
             style="fill:#2d2c2e;fill-opacity:1;fill-rule:nonzero;stroke:none"
             id="path3298"
             inkscape:connector-curvature="0" /></g><g
           id="g3300"
           transform="translate(102.588,713.7954)"><path
             d="m 0,0 c -2.918,0 -4.808,-1.803 -4.808,-4.98 l 0,-6.268 11.161,0 -2.919,-7.898 -8.157,0 0,-36.06 -11.247,0 0,36.06 -3.949,0 0,7.898 4.207,0 c -0.258,1.803 -0.429,4.036 -0.429,6.01 0,8.672 5.15,13.652 14.165,13.652 3.778,0 6.869,-0.773 10.39,-2.747 L 4.722,-1.46 C 2.233,-0.258 1.374,0 0,0"
             style="fill:#2d2c2e;fill-opacity:1;fill-rule:nonzero;stroke:none"
             id="path3302"
             inkscape:connector-curvature="0" /></g><g
           id="g3304"
           transform="translate(127.3014,703.5786)"><path
             d="m 0,0 0,-44.989 -11.504,0 0,43.185 L 0,0 Z m 1.374,11.075 c 0,-3.95 -3.178,-7.126 -7.127,-7.126 -3.863,0 -7.04,3.176 -7.04,7.126 0,3.949 3.262,7.127 7.212,7.127 3.863,0 6.955,-3.178 6.955,-7.127"
             style="fill:#2d2c2e;fill-opacity:1;fill-rule:nonzero;stroke:none"
             id="path3306"
             inkscape:connector-curvature="0" /></g><g
           id="g3308"
           transform="translate(163.5313,691.2153)"><path
             d="m 0,0 c -2.318,2.146 -4.808,3.434 -6.954,3.434 -5.151,0 -7.47,-4.464 -7.47,-14.768 0,-5.752 0.774,-9.187 2.232,-11.076 1.202,-1.545 3.177,-2.489 5.151,-2.489 2.663,0 5.067,1.116 7.899,3.607 l 0.688,0.6 5.237,-6.954 c -1.718,-1.718 -2.49,-2.318 -4.036,-3.262 -3.09,-1.805 -6.525,-2.747 -10.732,-2.747 -12.105,0 -19.146,8.414 -19.146,22.666 0,10.13 3.864,16.828 9.016,20.347 2.918,1.975 7.212,3.263 10.903,3.263 2.919,0 6.096,-0.686 8.501,-1.975 C 2.92,9.788 3.691,9.186 5.581,7.555 L 0,0 Z"
             style="fill:#2d2c2e;fill-opacity:1;fill-rule:nonzero;stroke:none"
             id="path3310"
             inkscape:connector-curvature="0" /></g><g
           id="g3312"
           transform="translate(200.0191,685.3774)"><path
             d="m 0,0 0,0.514 c 0,3.262 -0.344,4.98 -1.374,6.611 -1.115,1.718 -2.747,2.576 -5.064,2.576 -4.38,0 -6.87,-3.434 -6.87,-9.53 L -13.308,0 0,0 Z M 11.418,-21.895 C 6.354,-26.016 1.031,-27.99 -5.151,-27.99 c -12.621,0 -20.779,8.928 -20.779,22.752 0,7.898 1.631,13.136 5.497,17.428 3.605,4.036 7.983,5.925 13.822,5.925 5.066,0 9.873,-1.718 12.707,-4.636 4.035,-4.121 5.838,-10.045 5.838,-19.233 l 0,-2.66 -25.413,0 0,-0.345 c 0,-6.782 3.347,-10.644 9.272,-10.644 3.949,0 7.641,1.458 11.161,4.378 l 4.464,-6.87 z"
             style="fill:#2d2c2e;fill-opacity:1;fill-rule:nonzero;stroke:none"
             id="path3314"
             inkscape:connector-curvature="0" /></g><g
           id="g3316"
           transform="translate(229.5528,703.6636)"><path
             d="m 0,0 c 1.031,-1.803 1.631,-3.691 1.631,-5.494 1.718,1.202 3.178,2.231 5.067,3.263 2.318,1.202 5.323,1.888 7.898,1.888 4.894,0 9.188,-2.575 10.561,-6.353 0.6,-1.631 0.858,-3.521 0.858,-6.268 l 0,-32.11 -11.332,0 0,28.591 c 0,4.979 -0.86,6.438 -3.865,6.438 -2.318,0 -5.322,-1.545 -7.985,-3.949 l 0,-31.08 -11.503,0 0,31.852 c 0,3.779 -0.516,7.384 -1.547,10.304 L 0,0 Z"
             style="fill:#2d2c2e;fill-opacity:1;fill-rule:nonzero;stroke:none"
             id="path3318"
             inkscape:connector-curvature="0" /></g><g
           id="g3320"
           transform="translate(285.5318,694.6489)"><path
             d="m 0,0 -7.385,0 0,-22.065 c 0,-5.581 1.031,-7.04 4.981,-7.04 1.029,0 2.06,0.256 4.121,0.859 l 1.459,-6.869 c -3.348,-1.374 -6.354,-1.974 -9.358,-1.974 -5.838,0 -10.474,2.575 -11.847,6.439 -0.688,1.888 -0.774,2.747 -0.774,6.782 l 0,23.868 -4.379,0 0,7.899 4.379,0 c 0,4.293 0,7.127 0.429,10.389 l 11.677,2.919 C -7.127,17.171 -7.385,12.364 -7.385,7.899 l 10.304,0 L 0,0 Z"
             style="fill:#2d2c2e;fill-opacity:1;fill-rule:nonzero;stroke:none"
             id="path3322"
             inkscape:connector-curvature="0" /></g><text
           xml:space="preserve"
           style="font-style:normal;font-weight:normal;font-size:46.15977859px;line-height:125%;font-family:sans-serif;letter-spacing:0px;word-spacing:0px;fill:#000000;fill-opacity:1;stroke:none;stroke-width:1px;stroke-linecap:butt;stroke-linejoin:miter;stroke-opacity:1"
           x="291.93109"
           y="-658.65601"
           id="text4383"
           sodipodi:linespacing="125%"
           transform="scale(1,-1)"><tspan
             sodipodi:role="line"
             id="tspan4385"
             x="291.93109"
             y="-658.65601">.</tspan></text>
</g></g></g></svg>