<svg id="svg" version="1.1" width="400" height="58.608058608058606" viewBox="0 0 400 58.608058608058606" xmlns="http://www.w3.org/2000/svg" xmlns:xlink="http://www.w3.org/1999/xlink" ><g id="svgg"><path id="path0" d="" stroke="none" fill="#000000" fill-rule="evenodd"></path><path id="path1" d="M57.034 0.526 C 55.956 2.521,54.743 3.359,52.394 3.728 C 50.545 4.019,49.593 4.420,48.619 5.318 C 47.744 6.125,47.158 6.177,43.744 5.751 C 37.429 4.964,34.118 6.121,32.299 9.750 C 30.399 13.541,27.404 17.778,26.289 18.251 C 23.151 19.584,22.998 19.723,21.674 22.443 C 21.111 23.598,20.260 25.147,19.784 25.884 C 19.307 26.622,18.504 28.056,18.000 29.071 L 17.083 30.917 15.678 31.625 C 13.957 32.492,13.650 32.770,12.791 34.250 C 11.063 37.223,11.125 37.168,9.250 37.417 C 7.239 37.684,6.300 38.551,5.251 41.110 L 4.580 42.747 3.341 43.362 C 1.868 44.093,1.695 44.288,0.738 46.303 L 0.000 47.857 0.000 53.178 L 0.000 58.500 200.000 58.500 L 400.000 58.500 400.000 29.583 L 400.000 0.667 399.531 0.667 C 398.767 0.667,397.129 1.011,396.587 1.286 C 395.924 1.622,393.029 4.573,392.424 5.529 C 392.097 6.045,391.608 6.483,390.855 6.931 C 390.058 7.406,389.574 7.850,389.074 8.564 C 388.227 9.777,387.942 9.928,385.890 10.258 C 383.552 10.634,382.980 10.933,381.375 12.621 L 380.000 14.067 378.959 13.859 C 376.941 13.455,376.896 13.426,376.061 11.979 C 374.331 8.980,373.399 8.368,369.465 7.645 C 364.128 6.664,362.062 7.208,360.609 9.974 C 360.139 10.868,359.820 11.248,359.208 11.640 C 357.592 12.679,356.632 13.984,355.485 16.703 C 354.051 20.101,352.291 21.050,349.250 20.063 C 347.973 19.649,347.803 19.635,345.250 19.727 C 342.205 19.837,342.200 19.836,341.203 18.570 C 340.707 17.939,340.194 17.545,339.193 17.024 C 338.190 16.502,337.625 16.067,336.969 15.313 C 335.961 14.154,335.168 13.644,333.750 13.244 C 332.438 12.873,332.332 12.763,331.354 10.762 C 330.221 8.441,329.493 7.924,326.750 7.495 C 325.009 7.222,324.950 7.184,324.516 6.050 C 323.342 2.979,321.822 2.078,317.833 2.090 C 314.574 2.100,313.105 2.787,311.722 4.948 C 310.966 6.130,310.632 6.315,308.897 6.509 C 307.043 6.716,306.550 6.876,305.458 7.628 C 304.621 8.204,304.501 8.236,302.667 8.360 C 300.110 8.533,298.490 8.860,296.810 9.544 C 296.044 9.856,294.917 10.243,294.305 10.404 C 293.694 10.565,292.688 10.992,292.069 11.354 C 290.786 12.104,290.005 12.323,288.583 12.331 C 286.717 12.343,284.242 13.256,282.688 14.509 C 281.488 15.476,280.875 15.565,279.780 14.930 C 278.490 14.183,277.311 13.953,275.182 14.036 C 272.251 14.150,271.565 14.554,270.291 16.921 C 269.497 18.397,269.396 18.457,267.651 18.483 C 266.196 18.505,265.144 18.842,264.256 19.569 C 263.249 20.394,262.948 20.345,261.236 19.068 C 258.653 17.143,257.527 16.734,254.371 16.577 C 251.501 16.434,251.440 16.408,249.711 14.594 C 247.594 12.372,246.350 11.882,243.407 12.108 L 242.063 12.211 241.525 11.531 C 241.206 11.128,240.598 10.660,240.035 10.384 L 239.083 9.917 235.333 9.908 C 230.020 9.897,229.752 9.785,228.181 6.924 C 226.908 4.605,224.896 3.898,221.495 4.572 C 220.106 4.848,220.052 4.847,218.749 4.489 C 215.113 3.492,212.992 4.457,211.103 7.968 C 210.115 9.806,210.571 9.639,205.983 9.841 L 202.178 10.009 200.797 9.483 C 199.222 8.884,198.697 8.460,197.997 7.219 C 196.555 4.663,194.995 3.615,191.441 2.814 C 189.676 2.416,189.091 2.207,188.391 1.725 C 185.996 0.075,182.172 0.420,180.818 2.408 C 180.277 3.203,179.974 3.154,179.237 2.149 C 178.894 1.681,178.243 1.006,177.791 0.649 L 176.970 0.000 163.839 0.000 L 150.708 0.000 149.583 1.256 C 148.156 2.851,146.467 3.612,145.110 3.271 C 144.591 3.141,141.755 0.956,141.398 0.412 L 141.128 0.000 99.223 0.000 L 57.318 0.000 57.034 0.526 " stroke="none" fill="#80ff80" fill-rule="evenodd"></path></g></svg>